<?xml version="1.0" standalone="no"?>
<!DOCTYPE svg PUBLIC "-//W3C//DTD SVG 20010904//EN"
 "http://www.w3.org/TR/2001/REC-SVG-20010904/DTD/svg10.dtd">
<svg version="1.0" xmlns="http://www.w3.org/2000/svg"
 width="512.000000pt" height="512.000000pt" viewBox="0 0 512.000000 512.000000"
 preserveAspectRatio="xMidYMid meet">

<g transform="translate(0.000000,512.000000) scale(0.100000,-0.100000)"
fill="#000000" stroke="none">
<path d="M1304 4611 c-672 -279 -1233 -514 -1246 -523 -55 -36 -58 -57 -58
-417 0 -313 1 -334 20 -371 34 -67 73 -80 245 -80 l145 0 0 -850 0 -850 -40 0
c-59 0 -116 -33 -140 -80 -18 -36 -20 -58 -20 -280 l0 -240 -45 0 c-64 0 -120
-31 -145 -80 -19 -37 -20 -58 -20 -380 0 -322 1 -343 20 -380 13 -26 34 -47
60 -60 39 -20 53 -20 2480 -20 2427 0 2441 0 2480 20 26 13 47 34 60 60 19 37
20 58 20 380 0 322 -1 343 -20 380 -25 49 -81 80 -145 80 l-45 0 0 240 c0 222
-2 244 -20 280 -24 47 -81 80 -140 80 l-40 0 0 850 0 850 145 0 c172 0 211 13
245 80 19 37 20 58 20 370 0 312 -1 333 -20 370 -13 26 -34 47 -60 60 -22 11
-582 245 -1244 520 -791 328 -1216 500 -1238 499 -20 0 -517 -201 -1254 -508z
m2381 -270 l1130 -469 3 -176 2 -176 -2260 0 -2260 0 2 176 3 176 915 379
c864 359 1335 555 1335 558 0 1 509 -210 1130 -468z m-2675 -1971 l0 -850
-150 0 -150 0 0 850 0 850 150 0 150 0 0 -850z m2800 0 l0 -850 -40 0 c-59 0
-116 -33 -140 -80 -18 -36 -20 -58 -20 -280 l0 -240 -1050 0 -1050 0 0 240 c0
222 -2 244 -20 280 -24 47 -81 80 -140 80 l-40 0 0 850 0 850 1250 0 1250 0 0
-850z m600 0 l0 -850 -150 0 -150 0 0 850 0 850 150 0 150 0 0 -850z m-3200
-1300 l0 -150 -350 0 -350 0 0 150 0 150 350 0 350 0 0 -150z m3400 0 l0 -150
-350 0 -350 0 0 150 0 150 350 0 350 0 0 -150z m210 -610 l0 -160 -2260 0
-2260 0 0 160 0 160 2260 0 2260 0 0 -160z"/>
<path d="M1588 4099 c-43 -22 -78 -81 -78 -129 0 -50 35 -107 80 -130 38 -20
57 -20 970 -20 913 0 932 0 970 20 45 23 80 80 80 130 0 50 -35 107 -80 130
-38 20 -56 20 -972 20 -909 -1 -934 -1 -970 -21z"/>
<path d="M2488 2999 c-49 -25 -78 -81 -78 -151 l0 -53 -52 -24 c-65 -30 -166
-129 -197 -194 -89 -185 -58 -381 84 -522 83 -84 201 -135 311 -135 80 0 154
-72 154 -151 0 -74 -76 -149 -151 -149 -73 0 -149 76 -149 150 0 50 -35 107
-80 130 -50 25 -90 25 -140 0 -160 -81 -62 -409 155 -521 l65 -34 0 -53 c0
-71 29 -126 80 -152 110 -56 220 20 220 152 l0 53 53 25 c64 30 164 128 196
193 89 184 58 381 -84 523 -84 84 -200 134 -312 134 -77 0 -153 74 -153 150 0
74 76 150 149 150 77 0 151 -74 151 -150 0 -76 74 -150 150 -150 17 0 49 9 70
20 93 48 105 181 29 337 -33 66 -132 164 -196 194 l-53 24 0 53 c0 133 -113
209 -222 151z"/>
</g>
</svg>
