<?xml version="1.0" standalone="no"?>
<!DOCTYPE svg PUBLIC "-//W3C//DTD SVG 20010904//EN"
 "http://www.w3.org/TR/2001/REC-SVG-20010904/DTD/svg10.dtd">
<svg version="1.0" xmlns="http://www.w3.org/2000/svg"
 width="830.000000pt" height="768.000000pt" viewBox="0 0 830.000000 768.000000"
 preserveAspectRatio="xMidYMid meet">

<g transform="translate(0.000000,768.000000) scale(0.100000,-0.100000)"
fill="#dc2020" stroke="none">
<path d="M1452 6437 c-276 -276 -502 -507 -502 -512 0 -5 489 -499 1087 -1097
l1088 -1088 -1093 -1093 -1092 -1092 512 -513 513 -512 1092 1092 1093 1093
1093 -1093 1092 -1092 513 512 512 513 -1092 1092 -1093 1093 1088 1088 c598
598 1087 1092 1087 1097 0 13 -1002 1015 -1015 1015 -5 0 -499 -489 -1097
-1087 l-1088 -1088 -1088 1088 c-598 598 -1092 1087 -1097 1087 -6 0 -236
-226 -513 -503z"/>
</g>
</svg>
