<?xml version="1.0" standalone="no"?>
<!DOCTYPE svg PUBLIC "-//W3C//DTD SVG 20010904//EN"
 "http://www.w3.org/TR/2001/REC-SVG-20010904/DTD/svg10.dtd">
<svg version="1.0" xmlns="http://www.w3.org/2000/svg"
 width="1030.000000pt" height="1030.000000pt" viewBox="0 0 1030.000000 1030.000000"
 preserveAspectRatio="xMidYMid meet">

<g transform="translate(0.000000,1030.000000) scale(0.100000,-0.100000)"
fill="#5AFFE7" stroke="none">
<path d="M1063 9117 c-830 -829 -943 -946 -943 -972 0 -26 113 -143 943 -972
995 -996 968 -971 1010 -925 15 17 17 63 17 455 l0 437 326 0 327 0 51 48 c28
26 51 51 51 56 0 5 14 17 30 26 17 10 29 23 28 29 -2 6 10 17 26 26 17 8 36
23 43 32 25 34 274 244 329 278 9 6 56 37 105 69 217 144 296 186 584 314 150
67 448 155 730 215 l55 12 0 438 c0 423 -1 439 -19 453 -17 12 -216 14 -1343
14 l-1323 0 0 438 c0 413 -1 440 -18 455 -10 10 -29 17 -43 17 -18 0 -237
-213 -966 -943z"/>
<path d="M4854 8195 c-290 -25 -632 -111 -899 -227 -138 -60 -345 -167 -376
-194 -8 -8 -19 -14 -24 -14 -17 0 -224 -146 -340 -241 -130 -106 -320 -293
-411 -404 -104 -128 -264 -352 -264 -370 0 -5 -6 -16 -14 -24 -27 -31 -123
-217 -184 -356 -67 -154 -148 -395 -167 -495 -3 -19 -17 -85 -31 -147 -26
-119 -54 -417 -54 -573 0 -156 28 -456 54 -574 14 -61 27 -127 31 -146 18 -97
117 -387 178 -520 68 -149 149 -303 173 -331 8 -8 14 -19 14 -24 0 -12 60
-101 159 -234 370 -499 902 -882 1496 -1076 141 -46 347 -96 502 -121 129 -21
592 -30 773 -15 74 6 178 20 230 31 52 11 119 25 148 30 70 12 197 50 357 108
130 46 450 201 535 259 25 16 86 56 135 89 50 32 97 64 105 71 8 7 33 26 55
43 94 74 298 266 378 357 640 724 906 1642 746 2581 -77 457 -244 855 -530
1262 -148 212 -440 507 -652 660 -27 19 -60 44 -75 56 -100 78 -397 243 -552
307 -274 113 -574 196 -791 218 -312 31 -461 34 -705 14z m476 -1034 l0 -268
83 -8 c122 -10 321 -50 412 -83 128 -46 225 -95 225 -114 0 -10 -11 -41 -24
-70 -14 -29 -28 -67 -32 -83 -4 -17 -20 -59 -36 -93 -15 -35 -28 -70 -28 -78
0 -11 -18 -6 -67 20 -80 42 -222 96 -278 106 -22 4 -80 15 -130 24 -55 10
-141 17 -220 17 -208 0 -365 -52 -472 -155 -23 -22 -43 -47 -43 -53 0 -7 -3
-13 -7 -13 -14 0 -45 -64 -64 -130 -39 -135 -15 -302 59 -402 36 -48 141 -148
157 -148 3 0 21 -11 38 -24 56 -42 264 -143 451 -217 219 -88 445 -230 573
-361 109 -110 161 -196 214 -348 32 -94 33 -97 33 -280 0 -184 0 -186 -33
-280 -33 -94 -85 -197 -142 -277 -35 -50 -164 -171 -226 -213 -107 -73 -314
-156 -417 -169 l-51 -6 -3 -292 -2 -293 -165 0 -165 0 -2 283 -3 282 -35 2
c-261 17 -456 62 -665 154 -11 5 -38 19 -60 32 -22 12 -50 28 -62 35 -21 12
-21 14 -8 55 33 103 101 289 112 306 1 2 41 -18 90 -43 152 -79 182 -90 392
-146 94 -25 341 -37 462 -22 157 20 319 103 406 209 21 26 54 79 73 117 l35
70 0 150 0 151 -39 79 c-66 137 -214 266 -411 361 -44 21 -88 42 -98 47 -10 5
-51 22 -90 38 -313 124 -522 246 -663 387 -195 194 -265 423 -220 718 14 92
67 233 106 282 11 14 20 31 20 38 0 14 182 205 195 205 5 0 18 9 29 19 20 18
108 71 151 91 50 23 196 70 255 82 l65 13 3 283 2 282 160 0 160 0 0 -269z"/>
<path d="M8227 4052 c-15 -17 -17 -63 -17 -455 l0 -437 -326 0 -326 0 -132
-132 c-486 -491 -1063 -802 -1746 -943 l-155 -31 3 -435 c3 -422 4 -434 24
-451 19 -17 97 -18 1339 -18 l1319 0 0 -438 c0 -413 1 -440 18 -455 10 -10 29
-17 43 -17 18 0 237 213 966 943 830 829 943 946 943 972 0 26 -113 143 -943
972 -995 996 -968 971 -1010 925z"/>
</g>
</svg>
