<?xml version="1.0" standalone="no"?>
<!DOCTYPE svg PUBLIC "-//W3C//DTD SVG 20010904//EN"
 "http://www.w3.org/TR/2001/REC-SVG-20010904/DTD/svg10.dtd">
<svg version="1.0" xmlns="http://www.w3.org/2000/svg"
 width="500.000000pt" height="500.000000pt" viewBox="0 0 500.000000 500.000000"
 preserveAspectRatio="xMidYMid meet">

<g transform="translate(0.000000,500.000000) scale(0.100000,-0.100000)"
fill="#5AFFE7" stroke="none">
<path d="M3017 4948 c-56 -53 -1560 -1709 -1555 -1712 1 -2 50 1 108 6 124 11
318 -3 460 -32 364 -77 716 -282 955 -558 359 -413 503 -954 395 -1481 -88
-432 -363 -844 -722 -1079 -48 -31 -87 -60 -87 -64 -1 -5 281 -8 625 -8 707 0
680 -3 715 74 18 39 19 101 19 1464 l0 1422 413 0 c390 0 414 1 441 19 16 11
35 30 42 43 17 29 17 106 1 135 -19 34 -1606 1776 -1635 1795 -17 11 -46 18
-79 18 -46 0 -55 -4 -96 -42z"/>
<path d="M1465 2986 c-644 -108 -1139 -600 -1241 -1234 -17 -109 -19 -348 -4
-453 93 -616 558 -1110 1168 -1239 125 -27 373 -37 497 -21 342 45 639 193
880 436 201 204 335 453 397 738 32 148 32 456 0 604 -63 291 -198 539 -407
748 -205 205 -438 334 -725 402 -88 21 -136 25 -295 29 -129 2 -216 -1 -270
-10z m305 -634 l0 -108 78 -11 c71 -11 167 -40 201 -62 14 -9 8 -38 -25 -118
l-14 -32 -47 21 c-77 34 -143 48 -227 48 -103 0 -151 -15 -202 -65 -54 -52
-70 -106 -53 -178 17 -71 65 -115 196 -178 225 -107 254 -123 312 -175 98 -89
139 -204 120 -338 -21 -153 -157 -293 -311 -321 l-38 -7 0 -119 0 -119 -70 0
-70 0 0 114 0 113 -71 7 c-113 12 -279 69 -279 98 0 9 39 126 45 136 1 1 28
-11 61 -28 85 -43 188 -63 292 -58 100 5 151 26 201 84 42 47 51 73 51 141 0
113 -57 180 -215 253 -322 149 -390 209 -414 362 -30 187 92 358 292 408 l47
12 0 114 0 114 70 0 70 0 0 -108z"/>
</g>
</svg>
