<?xml version="1.0" standalone="no"?>
<!DOCTYPE svg PUBLIC "-//W3C//DTD SVG 20010904//EN"
 "http://www.w3.org/TR/2001/REC-SVG-20010904/DTD/svg10.dtd">
<svg version="1.0" xmlns="http://www.w3.org/2000/svg"
 width="1030.000000pt" height="1030.000000pt" viewBox="0 0 1030.000000 1030.000000"
 preserveAspectRatio="xMidYMid meet">

<g transform="translate(0.000000,1030.000000) scale(0.100000,-0.100000)"
fill="#212B38" stroke="none">
<path d="M4990 9300 c-30 -4 -138 -13 -240 -20 -102 -6 -214 -18 -250 -25 -36
-7 -90 -16 -120 -20 -30 -4 -59 -11 -65 -15 -5 -4 -46 -13 -90 -20 -44 -7 -87
-16 -96 -20 -9 -5 -44 -14 -78 -21 -33 -6 -61 -15 -61 -19 0 -4 -26 -13 -57
-20 -32 -7 -62 -16 -68 -20 -5 -4 -29 -11 -52 -15 -24 -4 -43 -10 -43 -15 0
-4 -22 -14 -50 -21 -27 -7 -50 -16 -50 -20 0 -4 -25 -13 -55 -19 -30 -6 -55
-15 -55 -19 0 -4 -18 -13 -40 -20 -22 -6 -40 -16 -40 -21 0 -6 -8 -10 -18 -10
-10 0 -58 -20 -107 -45 -50 -25 -96 -45 -102 -45 -7 0 -13 -4 -13 -9 0 -5 -16
-15 -35 -21 -19 -6 -35 -15 -35 -20 0 -4 -14 -13 -30 -19 -17 -5 -54 -25 -83
-43 -84 -54 -91 -58 -117 -71 -14 -6 -33 -20 -42 -29 -10 -10 -23 -18 -28 -18
-6 0 -16 -5 -23 -10 -15 -13 -109 -82 -183 -135 -30 -22 -61 -45 -67 -50 -7
-6 -50 -42 -97 -80 -47 -38 -93 -76 -103 -85 -47 -38 -336 -330 -367 -370 -19
-25 -40 -49 -47 -53 -7 -4 -13 -12 -13 -16 0 -9 -36 -54 -77 -98 -13 -13 -23
-27 -23 -31 0 -4 -18 -27 -40 -52 -22 -25 -43 -53 -46 -62 -3 -10 -9 -18 -14
-18 -5 0 -12 -9 -15 -20 -3 -11 -12 -26 -18 -32 -7 -7 -27 -35 -44 -63 -18
-27 -36 -55 -40 -61 -13 -17 -30 -45 -69 -114 -21 -36 -40 -67 -44 -70 -4 -3
-15 -21 -25 -40 -62 -121 -74 -146 -75 -157 0 -6 -4 -13 -8 -15 -8 -3 -62
-110 -62 -123 0 -4 -15 -40 -34 -79 -19 -39 -40 -90 -46 -113 -6 -23 -15 -45
-20 -48 -6 -3 -10 -14 -10 -23 0 -9 -7 -30 -16 -47 -8 -16 -20 -51 -25 -77 -6
-27 -15 -48 -19 -48 -5 0 -12 -21 -16 -47 -3 -27 -12 -61 -19 -78 -8 -16 -19
-57 -26 -90 -7 -33 -16 -64 -20 -70 -4 -5 -10 -34 -14 -64 -4 -30 -13 -68 -20
-85 -7 -17 -16 -67 -20 -111 -4 -44 -11 -85 -16 -91 -5 -6 -14 -86 -21 -177
-7 -92 -16 -167 -20 -167 -4 0 -8 -133 -8 -295 0 -162 4 -295 8 -295 4 0 13
-77 20 -172 7 -95 17 -177 21 -183 5 -5 12 -44 16 -85 4 -41 13 -93 21 -115 8
-22 17 -64 20 -92 4 -29 10 -53 14 -53 4 0 13 -33 20 -72 7 -40 16 -77 20 -83
4 -5 13 -36 20 -68 7 -31 16 -57 20 -57 4 0 13 -28 20 -63 7 -34 16 -64 19
-67 6 -5 20 -40 50 -120 9 -25 19 -46 23 -48 3 -2 12 -25 19 -53 7 -27 16 -49
20 -49 4 0 13 -16 19 -36 7 -20 18 -48 26 -62 8 -15 14 -32 14 -38 0 -6 6 -17
14 -23 8 -7 18 -26 21 -42 4 -16 10 -29 15 -29 4 0 15 -18 23 -39 9 -22 21
-42 26 -45 5 -4 12 -20 16 -36 4 -17 10 -30 15 -30 4 0 13 -13 20 -30 7 -16
16 -30 20 -30 5 0 13 -12 19 -27 6 -16 25 -48 41 -73 17 -25 33 -53 36 -62 4
-10 10 -18 14 -18 4 0 12 -11 18 -25 12 -26 22 -40 55 -76 9 -10 17 -21 17
-24 0 -10 64 -95 72 -95 4 0 8 -5 8 -11 0 -7 10 -22 22 -34 13 -13 28 -29 33
-37 55 -74 72 -94 101 -123 19 -19 34 -37 34 -40 0 -8 348 -351 395 -390 20
-16 50 -41 66 -55 16 -14 41 -34 55 -45 15 -11 35 -28 45 -38 11 -9 22 -17 26
-17 5 0 20 -10 35 -23 15 -12 53 -40 84 -62 31 -22 66 -48 77 -58 11 -9 26
-17 33 -17 7 0 17 -6 21 -12 4 -7 20 -20 35 -28 70 -39 144 -85 156 -97 7 -7
20 -13 27 -13 7 0 20 -6 27 -13 18 -17 337 -174 371 -182 15 -4 27 -11 27 -16
0 -5 8 -9 18 -9 10 0 34 -8 54 -18 20 -11 57 -25 82 -32 25 -7 46 -16 46 -20
0 -4 17 -10 38 -14 20 -3 49 -12 64 -20 14 -8 45 -17 67 -21 23 -4 41 -10 41
-14 0 -4 32 -13 70 -20 39 -7 70 -16 70 -20 0 -4 35 -13 78 -20 42 -7 82 -16
87 -20 6 -5 51 -13 100 -20 50 -7 99 -16 110 -21 11 -5 81 -16 155 -25 74 -9
164 -20 200 -25 83 -11 637 -11 710 0 30 5 118 17 195 27 77 10 145 21 150 25
6 3 54 12 108 19 53 7 97 16 97 20 0 3 36 12 80 20 43 7 77 15 75 19 -2 4 32
12 75 19 44 8 80 17 80 21 0 5 19 13 43 18 48 12 117 36 164 58 17 8 45 17 62
20 17 4 31 10 31 14 0 5 23 14 50 21 28 7 50 16 50 21 0 4 19 12 42 18 22 7
47 18 55 26 8 8 23 14 32 14 10 0 24 6 30 14 7 8 25 18 41 21 16 3 34 12 40
20 6 8 25 17 41 20 16 4 29 10 29 15 0 4 15 14 33 21 17 7 38 19 45 26 7 7 20
13 27 13 7 0 20 6 27 13 17 15 64 43 101 59 15 7 27 15 27 19 0 4 14 12 30 19
17 7 30 16 30 21 0 4 9 11 20 14 11 3 26 12 32 18 7 7 47 35 88 62 41 28 82
57 91 65 9 8 29 24 44 35 16 11 33 25 39 30 13 12 123 104 150 125 51 41 268
254 336 330 98 110 108 123 160 190 19 25 43 51 53 58 9 7 17 18 17 23 0 10 2
13 51 69 16 19 37 49 46 65 9 17 19 32 22 35 4 3 21 28 39 55 17 28 36 55 42
62 5 7 10 15 10 18 0 4 11 21 25 39 14 18 25 38 25 44 0 7 3 12 8 12 4 0 13
15 21 32 8 18 17 35 20 38 3 3 22 37 41 75 19 39 37 72 40 75 9 8 100 194 100
203 0 5 16 42 35 83 19 40 35 79 35 86 0 8 6 22 14 33 7 11 17 35 21 53 4 18
13 45 21 60 8 15 17 42 20 60 3 17 10 32 14 32 4 0 13 28 20 63 6 34 15 67 20
72 4 6 10 26 14 45 3 19 13 58 21 85 30 103 54 212 60 278 4 37 11 67 15 67 8
0 30 198 30 268 0 23 5 42 10 42 13 0 14 753 1 778 -5 9 -15 80 -21 157 -7 77
-16 142 -20 145 -3 3 -12 45 -19 95 -7 49 -16 94 -21 100 -4 5 -11 36 -15 68
-4 31 -11 57 -15 57 -5 0 -14 34 -21 75 -6 41 -15 75 -19 75 -4 0 -13 28 -20
63 -8 34 -19 71 -26 82 -6 11 -15 36 -19 55 -4 19 -10 40 -14 45 -4 6 -20 44
-36 85 -15 41 -36 93 -46 116 -11 22 -19 48 -19 57 0 9 -4 17 -10 17 -5 0 -15
18 -21 40 -7 22 -15 40 -19 40 -3 0 -12 17 -19 38 -8 20 -17 39 -20 42 -3 3
-28 50 -56 105 -27 55 -53 102 -56 105 -3 3 -21 31 -40 63 -19 32 -38 66 -44
76 -5 9 -20 31 -32 48 -13 17 -23 34 -23 37 0 4 -5 12 -10 19 -6 7 -49 66 -97
132 -47 66 -92 124 -100 128 -7 4 -13 12 -13 17 0 5 -10 20 -22 33 -13 13 -48
54 -78 91 -104 129 -375 393 -525 510 -27 22 -58 47 -68 58 -10 10 -21 18 -26
18 -4 0 -21 11 -37 25 -34 30 -35 31 -94 70 -53 35 -65 44 -90 67 -10 9 -27
19 -39 23 -11 3 -27 12 -33 19 -13 12 -103 67 -156 95 -15 8 -29 17 -32 21 -3
3 -20 12 -37 19 -18 8 -33 17 -33 21 0 4 -18 12 -40 19 -22 6 -40 15 -40 20 0
4 -18 13 -40 20 -22 6 -40 16 -40 21 0 6 -6 10 -12 10 -7 0 -35 11 -63 25 -27
13 -56 25 -62 25 -7 0 -13 4 -13 9 0 4 -20 14 -45 21 -25 7 -45 16 -45 20 0 4
-24 12 -54 19 -30 7 -56 15 -58 19 -4 8 -83 38 -158 59 -30 8 -59 18 -65 23
-5 4 -29 11 -52 15 -24 4 -43 10 -43 14 0 4 -36 14 -80 21 -44 7 -80 17 -80
20 0 4 -38 13 -85 20 -47 7 -88 17 -91 22 -3 4 -20 8 -37 8 -18 0 -63 7 -102
16 -87 19 -198 30 -484 49 -243 16 -258 16 -341 5z m400 -1055 c6 -4 10 -133
10 -360 0 -390 -4 -365 65 -365 19 0 36 -4 39 -8 3 -5 54 -12 113 -15 59 -4
130 -13 157 -21 27 -8 73 -18 102 -22 30 -3 54 -9 54 -13 0 -4 28 -13 62 -19
34 -6 64 -15 67 -20 3 -5 30 -15 59 -22 28 -6 52 -16 52 -21 0 -5 6 -9 13 -9
6 0 54 -21 105 -47 92 -46 94 -47 88 -77 -4 -17 -11 -32 -16 -34 -6 -2 -10
-11 -10 -21 0 -9 -8 -33 -19 -53 -10 -20 -21 -51 -25 -68 -3 -17 -13 -48 -22
-68 -9 -20 -25 -55 -35 -77 -9 -22 -23 -59 -29 -82 -6 -26 -17 -43 -25 -43 -8
0 -15 4 -15 8 0 5 -18 14 -40 21 -22 6 -40 16 -40 20 0 5 -12 12 -27 16 -16 3
-35 12 -43 19 -8 7 -33 18 -55 24 -68 19 -145 49 -139 54 3 3 -33 11 -80 18
-48 7 -86 16 -86 20 0 4 -47 14 -105 21 -58 6 -108 16 -111 20 -7 12 -348 11
-360 -1 -5 -5 -43 -14 -84 -20 -41 -6 -77 -14 -80 -19 -3 -4 -30 -14 -60 -21
-30 -7 -61 -19 -68 -27 -7 -7 -19 -13 -26 -13 -7 0 -21 -9 -31 -20 -10 -11
-23 -20 -29 -20 -10 0 -70 -49 -119 -97 -11 -10 -26 -31 -34 -48 -9 -16 -22
-34 -29 -38 -8 -4 -14 -14 -14 -21 0 -8 -6 -19 -14 -25 -8 -6 -17 -31 -20 -54
-4 -23 -14 -56 -22 -72 -19 -36 -24 -285 -7 -307 6 -7 14 -29 18 -48 9 -43 52
-135 71 -151 8 -6 14 -16 14 -21 0 -5 30 -38 68 -74 82 -78 86 -81 142 -119
25 -16 46 -33 48 -37 2 -4 19 -12 38 -18 19 -6 34 -15 34 -20 0 -4 11 -11 24
-14 14 -3 31 -12 38 -19 21 -19 206 -107 226 -107 7 0 12 -4 12 -9 0 -4 20
-14 45 -21 25 -7 45 -17 45 -21 0 -5 8 -9 18 -9 9 0 40 -11 67 -25 28 -13 55
-25 60 -25 6 0 28 -9 50 -20 22 -11 46 -19 53 -20 6 0 12 -4 12 -8 0 -5 18
-15 40 -22 22 -7 40 -16 40 -20 0 -4 18 -12 40 -19 22 -6 40 -16 40 -21 0 -4
14 -11 30 -15 17 -4 36 -12 43 -18 6 -7 23 -18 37 -25 61 -32 85 -46 90 -52 3
-4 16 -13 29 -20 26 -13 40 -23 70 -51 10 -9 23 -18 29 -20 39 -14 225 -195
283 -274 23 -33 49 -66 56 -73 7 -7 16 -24 19 -38 3 -13 10 -21 15 -18 5 3 9
0 9 -7 0 -11 30 -79 65 -149 7 -14 16 -43 20 -65 4 -22 11 -44 15 -50 43 -55
42 -685 -1 -685 -4 0 -11 -20 -15 -45 -3 -25 -10 -48 -14 -50 -5 -3 -16 -30
-25 -60 -8 -30 -20 -55 -24 -55 -5 0 -12 -13 -16 -29 -3 -16 -13 -35 -21 -42
-8 -6 -14 -15 -14 -20 0 -9 -50 -83 -92 -139 -31 -40 -152 -163 -189 -191 -19
-15 -45 -36 -58 -48 -13 -11 -32 -23 -42 -26 -11 -4 -34 -20 -51 -36 -18 -16
-38 -29 -44 -29 -6 0 -32 -11 -58 -25 -26 -14 -54 -25 -62 -25 -7 0 -14 -4
-14 -9 0 -11 -55 -31 -86 -31 -13 0 -24 -4 -24 -9 0 -5 -26 -15 -57 -22 -32
-7 -60 -16 -63 -19 -8 -10 -149 -42 -159 -36 -5 3 -12 -1 -15 -10 -3 -9 -6
-186 -6 -395 l0 -379 -230 0 -230 0 -2 377 -3 378 -128 7 c-70 4 -155 12 -190
17 -107 17 -182 33 -187 41 -3 4 -40 13 -82 20 -43 7 -78 16 -78 19 0 4 -27
13 -60 19 -33 7 -60 17 -60 21 0 5 -17 12 -37 16 -21 4 -49 13 -63 20 -14 7
-52 26 -85 42 -33 15 -66 34 -73 40 -7 7 -19 13 -26 13 -7 0 -28 12 -45 28
l-32 27 12 53 c7 28 16 52 19 52 4 0 10 14 14 31 3 17 12 45 20 62 14 33 39
105 59 169 6 21 14 38 18 38 4 0 11 15 14 33 4 17 9 35 12 39 4 8 105 -42 111
-54 2 -4 19 -12 38 -18 19 -6 34 -16 34 -21 0 -5 5 -9 12 -9 6 0 30 -9 52 -19
96 -46 284 -111 318 -111 11 0 17 -4 14 -8 -3 -5 36 -14 87 -21 51 -7 95 -18
99 -25 10 -15 576 -16 586 0 4 6 37 17 75 24 37 8 67 17 67 21 0 4 14 11 31
14 18 4 52 20 78 36 25 16 57 34 71 41 14 7 32 20 41 28 9 8 31 26 48 40 39
30 126 138 135 168 4 12 11 22 16 22 5 0 14 16 20 36 7 20 18 48 26 62 8 15
14 42 14 60 0 17 5 32 10 32 12 0 14 296 1 304 -4 3 -11 23 -15 44 -7 49 -62
165 -103 221 -43 59 -210 216 -248 233 -14 6 -25 14 -25 18 0 4 -13 13 -30 20
-16 7 -30 15 -30 19 0 4 -16 13 -35 20 -19 7 -35 16 -35 21 0 5 -13 11 -29 15
-16 3 -35 12 -41 20 -6 8 -25 17 -41 20 -16 4 -29 10 -29 14 0 4 -18 13 -40
20 -22 6 -40 16 -40 20 0 5 -22 14 -50 21 -27 7 -50 16 -50 21 0 5 -8 9 -17 9
-10 0 -40 11 -68 25 -27 13 -55 25 -60 25 -6 0 -28 9 -50 20 -22 11 -45 20
-52 20 -7 0 -13 4 -13 8 0 5 -18 14 -40 21 -22 6 -40 16 -40 20 0 5 -20 14
-45 21 -25 7 -45 16 -45 19 0 4 -16 13 -35 20 -19 7 -35 16 -35 21 0 4 -12 11
-26 14 -23 6 -81 41 -94 57 -3 4 -15 9 -27 13 -13 4 -29 13 -36 19 -7 7 -35
28 -62 47 -28 19 -56 39 -64 45 -27 21 -226 221 -238 240 -7 11 -26 40 -43 65
-16 25 -30 50 -30 56 0 6 -6 17 -14 23 -8 7 -18 27 -22 44 -3 18 -10 34 -13
37 -13 9 -42 103 -52 165 -6 33 -15 83 -20 110 -20 92 11 459 40 488 6 6 11
18 11 26 0 9 6 28 14 43 8 14 19 43 26 65 7 21 18 45 24 53 13 18 34 54 54 93
7 15 18 27 23 27 5 0 9 5 9 11 0 6 12 27 28 47 33 46 201 212 213 212 5 0 17
8 28 18 33 30 61 50 109 74 26 12 49 26 52 29 9 10 114 57 145 65 17 4 33 11
36 16 3 4 32 14 65 20 32 7 61 16 64 19 4 6 61 20 153 36 l27 5 0 367 c0 398
0 396 55 405 41 6 382 -1 395 -9z"/>
</g>
</svg>
