<?xml version="1.0" standalone="no"?>
<!DOCTYPE svg PUBLIC "-//W3C//DTD SVG 20010904//EN"
 "http://www.w3.org/TR/2001/REC-SVG-20010904/DTD/svg10.dtd">
<svg version="1.0" xmlns="http://www.w3.org/2000/svg"
 width="512.000000pt" height="512.000000pt" viewBox="0 0 512.000000 512.000000"
 preserveAspectRatio="xMidYMid meet">

<g transform="translate(0.000000,512.000000) scale(0.100000,-0.100000)"
fill="#dc2020" stroke="none">
<path d="M261 4034 c-53 -38 -51 25 -51 -1474 0 -1499 -2 -1436 51 -1474 21
-15 141 -16 1360 -16 l1337 0 71 -89 c39 -49 94 -110 123 -136 428 -386 1047
-415 1506 -70 88 67 219 210 280 309 240 383 242 845 6 1237 l-34 57 0 786 c0
846 1 833 -51 870 -22 15 -211 16 -2299 16 -2088 0 -2277 -1 -2299 -16z m1459
-244 c-41 -27 -103 -74 -137 -105 l-62 -55 -391 0 c-430 0 -445 -2 -474 -59
-14 -27 -16 -140 -16 -1011 0 -871 2 -984 16 -1011 29 -57 44 -59 474 -59
l391 0 62 -55 c34 -31 96 -78 137 -105 l74 -50 -682 0 -682 0 0 1280 0 1280
682 0 682 0 -74 -50z m1029 34 c117 -17 274 -65 373 -115 243 -121 459 -335
577 -573 44 -89 106 -254 98 -262 -1 -2 -37 -10 -79 -19 -244 -50 -453 -167
-624 -349 l-85 -89 -17 24 c-62 89 -170 169 -264 197 l-58 17 0 313 c0 255 2
312 13 312 20 0 88 -51 121 -91 41 -48 64 -105 75 -184 11 -78 36 -111 89
-121 45 -9 96 18 113 57 16 40 7 150 -19 222 -54 150 -180 276 -328 326 l-59
19 -6 74 c-8 107 -38 148 -109 148 -71 0 -101 -41 -109 -148 l-6 -74 -59 -19
c-144 -49 -262 -162 -323 -312 -35 -84 -43 -236 -18 -322 52 -180 188 -326
347 -373 l58 -17 0 -312 c0 -256 -2 -313 -13 -313 -20 0 -88 51 -121 91 -41
48 -64 105 -75 184 -11 78 -36 111 -89 121 -45 9 -96 -18 -113 -58 -7 -18 -10
-55 -6 -101 14 -196 162 -381 353 -446 l59 -19 6 -74 c8 -107 38 -148 109
-148 71 0 101 41 109 149 l6 74 45 13 c61 18 60 19 60 -20 0 -45 26 -178 46
-239 9 -27 14 -51 11 -54 -18 -17 -213 -35 -332 -29 -332 15 -609 138 -846
375 -186 185 -300 394 -355 651 -26 119 -26 381 0 500 56 259 167 463 355 651
147 147 287 237 470 303 198 71 407 92 620 60z m1941 -595 l0 -611 -22 16
c-13 9 -60 39 -105 68 l-83 51 0 394 c0 338 -2 398 -16 424 -29 57 -44 59
-474 59 l-391 0 -62 55 c-34 31 -96 78 -137 105 l-74 50 682 0 682 0 0 -611z
m-3363 174 c-3 -5 -24 -39 -47 -78 -281 -459 -281 -1071 0 -1530 23 -38 44
-73 47 -77 2 -5 -104 -8 -236 -8 l-241 0 0 850 0 850 241 0 c132 0 238 -3 236
-7z m2943 -279 l0 -286 -27 5 c-16 3 -64 11 -108 17 -44 7 -89 13 -100 15 -16
4 -25 24 -48 108 -27 98 -110 285 -172 385 l-26 42 240 0 241 0 0 -286z
m-1820 -139 c0 -165 -4 -295 -9 -295 -5 0 -30 15 -57 33 -188 126 -191 383 -5
524 74 57 71 69 71 -262z m1715 -345 c351 -83 634 -365 715 -715 27 -116 33
-217 20 -325 -52 -421 -365 -758 -775 -835 -131 -25 -319 -17 -439 19 -165 49
-297 127 -416 246 -118 117 -195 246 -246 416 -25 81 -28 104 -28 254 -1 142
2 177 22 249 72 265 243 478 485 606 204 108 439 138 662 85z m-1431 -242 c58
-38 111 -107 129 -167 13 -41 12 -49 -14 -115 -15 -39 -33 -98 -40 -131 -7
-33 -22 -71 -33 -83 -18 -21 -85 -62 -101 -62 -3 0 -5 133 -5 295 0 162 4 295
8 295 5 0 30 -14 56 -32z"/>
<path d="M3464 2221 c-40 -24 -59 -76 -44 -117 6 -16 93 -111 193 -211 l181
-183 -186 -187 c-138 -140 -187 -196 -192 -220 -16 -71 56 -143 127 -127 24 5
80 54 220 192 l187 186 183 -181 c100 -100 195 -187 211 -193 60 -22 136 33
136 98 0 42 -27 76 -204 252 l-176 174 184 186 c113 114 187 196 191 213 21
81 -57 156 -137 132 -12 -4 -106 -90 -208 -191 l-186 -184 -174 176 c-96 96
-187 182 -202 190 -37 19 -67 18 -104 -5z"/>
</g>
</svg>
